<svg width="253" height="64" viewBox="0 0 253 64" fill="none" xmlns="http://www.w3.org/2000/svg">
<path d="M20.1505 7.2842C17.261 2.61052 4.62444 5.27999 0.269043 4.60631V33.8189H6.08185V23.8316H14.6831C22.3914 23.8737 24.5902 12.261 20.1505 7.2842ZM6.08185 18.5768V9.69262C9.62851 10.0631 17.4547 7.79789 16.705 14.1137C17.4547 20.4884 9.67906 18.1979 6.08185 18.5768Z" fill="#00297A"/>
<path d="M30.4871 20.7411V28.5558H46.148V33.7768H24.6743V4.58105H46.148V9.83579H30.4871V15.8905H46.148V20.7411H30.4871Z" fill="#00297A"/>
<path d="M50.9163 31.5958C48.7428 29.76 47.6307 27.301 47.5718 24.2189H53.3846C53.3846 27.5452 55.4823 29.2126 59.686 29.2126C66.4676 29.8189 67.0489 20.741 60.0735 21.0021H55.0189V16.3537C58.6414 16.4379 66.4845 17.0863 64.0751 11.4442C62.4829 8.7663 53.3593 9.57472 53.9996 13.6H48.1868C48.1952 -3.00633 81.8589 6.02946 66.6193 18.7705C72.0361 20.1684 71.8424 29.2884 67.7313 31.8568C64.2941 34.6189 54.1933 34.2989 50.9163 31.5958Z" fill="#00297A"/>
<path d="M79.6097 33.8189H72.7776V4.58105H78.3882V25.5411L89.1714 4.58105H95.1864V33.8189H89.3736V15.5032L79.6097 33.8189Z" fill="#00297A"/>
<path d="M123.838 28.5389V4.58105H106.121C105.034 9.62527 104.883 28.6232 99.0447 28.4968V28.5389H97.3936V38.3158H103.206V33.7937L121.251 33.8105V38.3158H127.064V28.5389H123.838ZM118.025 28.5389H106.012C110.005 24.7158 110.451 15.3011 111.235 9.83579H118.025V28.5389Z" fill="#00297A"/>
<path d="M134.865 20.7411V28.5558H150.526V33.7768H129.052V4.58105H150.526V9.83579H134.865V15.8905H150.526V20.7411H134.865Z" fill="#00297A"/>
<path d="M158.394 21.6505V33.8189H152.582V4.58105H158.394V16.7242H169.506V4.58105H175.319V33.8189H169.506V21.6505H158.394Z" fill="#00297A"/>
<path d="M198.823 33.819H177.947V4.58105H183.76V28.5558H196.034V4.58105H201.847V28.64H204.433V38.3158H198.823V33.819Z" fill="#00297A"/>
<path d="M212.689 33.8189H205.857V4.58105H211.468V25.5411L222.251 4.58105H228.266V33.8189H222.453V15.5032L212.689 33.8189Z" fill="#00297A"/>
<path d="M237.423 33.8189H230.591V4.58105H236.202V25.5411L246.985 4.58105H253V33.8189H247.187V15.5032L237.423 33.8189Z" fill="#00297A"/>
<path d="M62.2387 45.4653C62.5167 45.0863 62.8874 44.699 63.3339 44.32C63.7804 43.9411 64.2353 43.5958 64.6902 43.2842C65.6337 43.2842 66.5604 43.2 67.4702 43.0232C68.3548 42.8632 69.1045 42.459 69.7111 41.8105C69.8459 41.659 69.8375 41.5411 69.6858 41.4484C69.5847 41.3895 69.4921 41.3895 69.391 41.4568C69.2983 41.5158 69.2225 41.5747 69.1635 41.6337C68.8097 42.0379 68.3801 42.2653 67.8746 42.3242C67.1248 42.4337 66.3835 42.4589 65.6421 42.4168C64.5133 42.3411 63.4434 42.1558 62.4409 41.8526C61.43 41.5495 60.2674 41.3305 58.9532 41.2042C57.9928 41.1116 56.9735 41.1116 55.8783 41.2126C54.7916 41.3137 53.8059 41.5326 52.9298 41.8779C51.6577 42.3747 50.5625 43.1242 49.6443 44.1095C48.1195 45.7432 47.2602 47.739 47.0833 50.0968C47.0243 50.8042 47.1422 51.6463 47.4287 52.6232C47.7151 53.6 48.1784 54.3074 48.8187 54.7368C49.0967 54.9221 49.3663 55.0568 49.6274 55.1326C49.8886 55.2084 50.2171 55.2253 50.6131 55.1832C50.79 55.1747 50.8574 55.0568 50.8321 54.8379C50.7984 54.6611 50.6973 54.5853 50.5288 54.5937C49.8212 54.7032 49.2399 54.5432 48.785 54.1221C48.2121 53.6168 47.8246 52.859 47.6056 51.8568C47.4202 51.0316 47.395 50.1558 47.5382 49.2211C47.6814 48.2863 47.9341 47.4526 48.288 46.6947C48.7597 45.6674 49.4674 44.7579 50.4277 43.9579C51.1438 43.36 51.9189 42.8632 52.7529 42.4758C53.5869 42.0884 54.4967 41.9284 55.4739 41.9874C56.4512 42.0463 57.4452 42.1979 58.4562 42.4337C59.4671 42.6695 60.4696 42.8632 61.4721 43.0316C62.4156 43.1747 63.2665 43.259 64.0331 43.2842C62.6346 44.0168 61.5479 44.8084 60.756 45.6758C59.9641 46.5347 59.2649 47.7558 58.6499 49.3305C58.0855 50.779 57.4873 52.2863 56.8639 53.8695C56.2321 55.4526 55.297 56.7411 54.0586 57.7432C53.4268 58.2568 52.5423 58.6021 51.4134 58.779C50.2845 58.9558 49.3073 59.0063 48.4986 58.9305C48.1195 58.8968 47.8499 58.8632 47.6898 58.8295C47.5298 58.7958 47.3528 58.7116 47.1759 58.5768C47.0664 58.5095 46.8895 58.5432 46.6452 58.6695C46.4009 58.8042 46.4767 58.9642 46.8727 59.1579C47.0327 59.2253 47.4034 59.2842 47.9931 59.3263C48.5828 59.3684 49.2483 59.3768 49.9897 59.3347C50.731 59.2926 51.4808 59.2084 52.2305 59.0737C52.9887 58.939 53.6121 58.7284 54.1008 58.4337C55.1706 57.7937 55.9962 57.1958 56.5775 56.6232C57.1588 56.0505 57.6558 55.4358 58.0686 54.7621C58.9616 53.3053 59.6356 51.7137 60.0989 49.9874C60.5707 48.2695 61.2783 46.7621 62.2387 45.4653Z" fill="#00297A"/>
<path d="M119.996 47.099C119.962 46.9558 119.71 46.8884 119.238 46.88C118.766 46.88 118.463 46.9726 118.328 47.1663C117.924 47.7811 117.385 48.7242 116.711 49.9705C116.037 51.2253 115.438 52.4716 114.925 53.7011C114.773 53.819 114.529 54.0042 114.175 54.2653C113.821 54.5263 113.551 54.7284 113.349 54.88C112.987 55.1579 112.465 55.4695 111.791 55.8147C111.117 56.16 110.544 56.3874 110.072 56.5137C109.617 56.64 109.348 56.4716 109.272 56.0084C109.213 55.6968 109.238 55.3432 109.348 54.9558C109.44 54.6105 109.575 54.2737 109.752 53.9453C109.937 53.6168 110.14 53.2884 110.359 52.96C110.611 52.5642 113.29 48.1853 113.214 47.4611C113.181 47.1242 112.397 46.6863 112.153 46.5095C112.094 46.5853 110.519 49.5242 110.434 49.6505C109.819 50.5853 109.449 51.1663 109.306 51.4021C109.078 51.7811 108.859 52.1768 108.657 52.5726C108.606 52.6653 108.573 52.7747 108.531 52.8758C106.652 55.4274 104.866 56.3705 103.906 56.7074C103.223 56.9095 102.65 57.0189 102.204 57.0189C101.505 57.0189 101.075 56.8337 100.915 56.4632C100.78 56.16 100.763 55.739 100.847 55.2C100.923 54.7284 101.05 54.2147 101.21 53.659C101.243 53.659 101.269 53.659 101.302 53.659C102.794 53.7263 104.259 53.2042 105.548 52.8926L105.54 52.8758C106.77 52.5221 107.755 52 108.472 51.2758C109.002 50.7284 109.263 50.1053 109.255 49.4063C109.247 48.6989 109.061 48.1179 108.682 47.6463C108.219 47.0905 107.528 46.8211 106.601 46.8211C105.843 46.8211 104.967 47.0484 103.981 47.5116C102.65 48.1263 101.564 49.019 100.704 50.1726C100.148 50.9137 99.7608 51.6968 99.5333 52.5053C99.289 52.4632 99.0531 52.4211 98.8172 52.379C98.8593 52.2442 98.9099 52.1095 98.9436 51.9663C99.3311 50.4505 99.3817 49.2295 99.0868 48.3116C99.0194 48.0926 98.9099 47.9074 98.7751 47.7474L98.7835 47.7389C98.7667 47.7221 98.7414 47.6884 98.6993 47.6463C98.6656 47.6042 98.6235 47.5705 98.5898 47.5368C98.2444 47.2084 97.4862 46.6105 96.5679 46.5263C94.8915 46.3832 94.1501 47.1579 93.5941 48.8253C93.3919 49.4232 93.6278 50.4758 94.049 51.1663C94.5208 51.9579 95.3127 52.5895 96.2562 52.96C95.8182 53.6674 95.2958 54.4 94.6893 55.1495C93.8469 56.1937 93.0044 56.7158 92.162 56.7158C91.3195 56.7158 90.8057 56.3537 90.6119 55.6379C90.494 55.2 90.4687 54.8632 90.5361 54.619C90.595 54.3747 90.7046 54.08 90.8646 53.7347C91.0837 53.2716 91.2943 52.8168 91.5133 52.379C91.7323 51.9326 91.943 51.5032 92.1536 51.0821C92.2968 50.7874 93.6699 47.9916 93.7458 47.7811C93.7542 47.7558 93.9479 47.2674 93.9901 47.1832C94.1586 46.8884 94.0069 46.9389 93.8637 46.9137C93.3751 46.8463 93.0381 46.9221 92.8022 47.0232C92.4484 47.1832 91.547 48.6737 90.4687 50.6526C90.4687 50.6526 90.4687 50.6611 90.4603 50.6611C89.3651 52.6063 86.8378 55.1158 86.1807 55.5789C85.5236 56.0421 83.7797 56.7663 82.3897 56.8926C81.185 56.9937 80.9155 56.0337 80.8565 55.7726C80.8565 55.7474 80.8649 55.7221 80.8649 55.6968C82.3644 54.9221 84.3779 53.8442 87.0989 52.32C87.1495 52.2863 87.1916 52.2695 87.2422 52.2442C87.3011 52.2105 87.3517 52.1768 87.4106 52.1516C88.0762 51.7726 88.2194 51.6632 88.5058 51.3179C88.5142 51.3095 88.5227 51.3011 88.5311 51.2926C89.0618 50.7453 89.323 50.1221 89.3145 49.4232C89.3061 48.7158 89.1208 48.1347 88.7417 47.6632C88.2784 47.1074 87.5876 46.8379 86.6609 46.8379C85.9027 46.8379 85.0265 47.0653 84.0409 47.5284C82.7098 48.1432 81.6231 49.0358 80.7638 50.1895C79.7108 51.6042 79.239 53.1537 79.357 54.8211C79.3738 55.0232 79.4075 55.2084 79.4496 55.3853C78.3123 55.9832 77.2846 56.4632 76.5264 56.699C76.2568 56.699 76.3747 56.6821 76.0967 56.5895C75.9451 56.3958 75.844 56.2526 75.8777 55.9579C75.9114 55.6632 75.9788 55.4021 76.0883 55.1579C76.6864 53.8358 77.352 52.5811 78.1017 51.3768C78.8515 50.1811 79.5844 48.96 80.3005 47.7137C80.2499 47.5368 80.0899 47.4189 79.8203 47.3516C79.5507 47.2842 79.3064 47.3011 79.1042 47.4021C78.346 47.7726 77.6047 48.379 76.8802 49.2042C76.1557 50.0379 75.4396 50.9221 74.7236 51.8653C74.0917 52.7074 73.4599 53.5242 72.8365 54.3242C72.2131 55.1242 71.615 55.8063 71.0505 56.3621C70.8652 56.539 70.663 56.5811 70.4355 56.4884C70.4187 56.1684 70.2755 55.9074 70.0059 55.6968C69.492 55.3432 69.0876 55.419 68.7928 55.9158C68.5738 56.2695 68.5738 56.5895 68.776 56.8758C68.6664 56.9347 68.5738 56.9853 68.5232 57.0021C68.1104 57.1537 67.8156 57.0947 67.6471 56.8421C67.4954 56.6484 67.428 56.3705 67.4365 56.0168C67.4449 55.6632 67.5123 55.3684 67.6387 55.1326L71.5139 47.4526L69.9891 47.3179L69.0877 48.5642C68.8433 47.7558 68.4137 47.2674 67.7987 47.0905C67.4028 46.9811 66.9563 46.9726 66.4593 47.0568C65.9622 47.1411 65.4989 47.2674 65.0692 47.4358C64.2521 47.7558 63.4433 48.2442 62.643 48.9095C61.8427 49.5579 61.1856 50.2484 60.6717 50.9726C59.9809 51.9663 59.5765 53.12 59.4755 54.4337C59.4249 54.8716 59.4418 55.2926 59.526 55.6968C59.6102 56.1011 59.8124 56.4716 60.1326 56.7916C60.638 57.2968 61.2362 57.5326 61.9438 57.5074C62.5504 57.4905 63.2748 57.2547 64.1089 56.8C64.4543 56.6063 64.8249 56.3958 65.2124 56.16C65.6 55.9242 65.9285 55.6547 66.2065 55.36C66.3329 55.2084 66.4087 55.2 66.434 55.3347C66.4592 55.4695 66.4929 55.5116 66.5266 55.4611C66.5772 57.0442 67.0068 57.8021 67.824 57.7432C68.3042 57.7095 68.7844 57.5411 69.2561 57.28C69.5173 57.4147 69.8122 57.4653 70.1576 57.4147C70.4777 57.3642 70.7725 57.2379 71.0421 57.0442C71.3117 56.8505 71.5476 56.64 71.7666 56.4126C72.1878 55.9663 72.5922 55.5032 72.9713 55.0063C73.3588 54.5179 73.7547 54.0211 74.176 53.5326C74.8162 52.5642 75.5323 51.6042 76.3158 50.6358C77.0992 49.6674 77.5289 49.4484 77.6131 49.9537C77.1666 50.6358 76.4927 51.8484 75.5828 53.5916C74.9847 54.7368 74.7909 55.6884 75.0268 56.4379C75.1195 56.7663 75.2964 57.0611 75.5744 57.3305C75.8019 57.5495 76.1557 57.6168 76.619 57.5495C76.7707 57.5579 77.3856 57.4316 79.7866 56.2442C79.913 56.5137 80.0562 56.7663 80.2499 56.9684C80.7554 57.5158 81.4715 57.7853 82.3981 57.7853C82.5835 57.7853 82.7772 57.7684 82.9794 57.7516C82.9794 57.7516 82.9794 57.7516 82.9879 57.7516C83.5439 57.7516 84.1673 57.5495 84.7654 57.2716H84.7738C84.7991 57.2632 84.8244 57.2463 84.8496 57.2379C84.917 57.2042 84.9844 57.179 85.0434 57.1453C85.7932 56.8084 86.4671 56.3621 87.0989 55.8568C87.1832 55.7895 87.3264 55.6547 87.4949 55.4863C88.0003 55.0316 88.5311 54.4084 88.5311 54.4084C86.7451 57.9032 85.0602 61.4147 84.8328 61.8442C84.3779 62.7032 84.0914 63.2505 83.9819 63.4863C83.8977 63.7221 83.9314 63.8653 84.0662 63.9074C84.3273 63.9832 84.5969 64.0084 84.8665 63.9916C85.1361 63.9747 85.4056 63.9579 85.6668 63.9579C85.8269 63.9326 85.9195 63.8821 85.9617 63.7979C86.3407 63.0316 86.8715 61.9537 87.5539 60.5642C88.2362 59.1747 88.9607 57.7095 89.7273 56.16C89.8621 55.8821 89.9632 55.8653 90.0475 56.1095C90.3592 57.0695 91.0668 57.5411 92.1788 57.5411C93.4678 57.5411 94.8241 56.9937 96.2478 55.8905C97.1913 55.1579 97.9074 54.3326 98.4044 53.4147C98.7161 53.4653 99.0363 53.5074 99.3564 53.5411C99.3058 53.9537 99.2974 54.3747 99.3311 54.8042C99.3985 55.7137 99.6849 56.4379 100.19 56.9768C100.696 57.5242 101.412 57.7937 102.339 57.7937C102.566 57.7937 102.81 57.7684 103.055 57.7347C103.156 57.7347 103.282 57.7095 103.451 57.6674C103.678 57.6168 103.906 57.5579 104.141 57.4821C104.967 57.2379 105.658 56.9432 106.61 56.1853C106.753 56.0758 106.905 55.9916 107.039 55.8737C107.115 55.8063 107.174 55.739 107.216 55.6716C107.494 55.419 107.798 55.0905 108.109 54.7284C108.101 55.0063 108.118 55.2926 108.16 55.6042C108.253 56.2442 108.522 56.7326 108.977 57.0526C109.306 57.28 109.718 57.339 110.215 57.2126C110.536 57.1116 110.898 56.9937 111.294 56.8589C111.69 56.7242 112.06 56.5474 112.406 56.32C112.726 56.1095 113.13 55.8316 113.602 55.4863C114.082 55.1411 114.444 54.8716 114.706 54.6611C114.613 55.2337 114.638 55.7221 114.765 56.1432C114.857 56.4632 115.034 56.7579 115.312 57.0189C115.582 57.28 116.02 57.3389 116.609 57.1958C116.879 57.1284 117.216 57.0021 117.604 56.8168C117.999 56.6316 118.379 56.3705 118.749 56.0337C118.884 55.9074 118.892 55.8147 118.775 55.739C118.657 55.6632 118.522 55.6463 118.37 55.68C118.193 55.8063 117.957 55.9579 117.663 56.1347C117.359 56.32 117.165 56.4211 117.064 56.4547C116.635 56.6232 116.306 56.5305 116.07 56.1853C115.919 55.9832 115.868 55.7221 115.919 55.4105C115.961 55.099 116.045 54.8295 116.171 54.6021L119.996 47.099ZM66.1981 54.2821C65.9285 54.8632 65.3725 55.3937 64.5385 55.8737C64.1762 56.0842 63.7719 56.2863 63.3338 56.4632C62.8957 56.6484 62.4661 56.7663 62.0533 56.8337C61.4215 56.9347 61.034 56.6568 60.8908 56.0168C60.756 55.4274 60.7981 54.8126 61.0003 54.1474C61.1266 53.7095 61.2951 53.2716 61.5226 52.8337C61.7416 52.3958 61.9775 51.9832 62.2134 51.5874C62.584 50.9474 62.9884 50.3747 63.4265 49.8695C63.7466 49.4821 64.0667 49.1368 64.3869 48.8421C64.707 48.5474 65.0945 48.2695 65.5663 48.0253C66.1223 47.7389 66.594 47.5874 66.9984 47.5705C67.6387 47.5537 68.0599 47.84 68.2536 48.4379C68.4474 49.0358 68.4053 49.6168 68.1357 50.1895L66.1981 54.2821ZM81.5557 52.6484C81.8758 51.6884 82.5245 50.5937 83.5017 49.3389C84.479 48.0926 85.5657 47.4695 86.762 47.4695C87.2506 47.4695 87.5707 47.6042 87.7392 47.8821C87.8571 48.0842 87.874 48.3368 87.8066 48.6316C87.7392 48.9263 87.6549 49.2042 87.5539 49.4653C87.4022 49.8695 87.1495 50.3074 86.8041 50.7621C86.7788 50.7958 86.7367 50.8463 86.6861 50.9053C86.5935 51.0232 86.5008 51.1242 86.4081 51.2253C85.9448 51.6716 83.1479 53.3389 81.0166 54.5263C81.0924 54.1811 81.185 53.8274 81.303 53.4568C81.3114 53.44 81.5726 52.6484 81.5557 52.6484ZM95.0094 50.5768C94.7735 50.1811 94.4787 49.6337 94.5882 49.1116C94.8831 47.6884 95.6918 47.5284 96.5764 47.6716C96.5848 47.6716 96.5848 47.6716 96.5932 47.6716C97.0313 47.7474 97.3008 47.8905 97.4862 48.0421C97.7305 48.2779 97.8316 48.6568 97.7305 49.2295C97.5704 50.1558 97.2587 51.0653 96.7954 51.9579C95.9361 51.68 95.3211 51.0905 95.0094 50.5768ZM103.459 49.3389C104.436 48.0926 105.523 47.4695 106.719 47.4695C107.208 47.4695 107.528 47.6042 107.697 47.8821C107.814 48.0842 107.831 48.3368 107.764 48.6316C107.697 48.9263 107.612 49.2042 107.511 49.4653C107.351 49.8863 107.098 50.3326 106.736 50.8042C106.374 51.2758 106.02 51.6211 105.649 51.8568C105.498 51.9579 105.346 52.0421 105.194 52.1179C103.83 52.5053 102.726 52.6568 101.766 52.6821C101.665 52.6737 101.58 52.6653 101.513 52.6568C101.833 51.6884 102.482 50.5853 103.459 49.3389Z" fill="#00297A"/>
<path d="M207.643 56.219C207.466 56.3453 207.23 56.4968 206.936 56.6821C206.632 56.8674 206.43 56.9768 206.337 57.0105C205.925 57.1621 205.63 57.1032 205.461 56.8505C205.31 56.6568 205.242 56.3789 205.251 56.0253C205.259 55.6716 205.327 55.3768 205.453 55.1411L209.328 47.4611L207.803 47.3263L206.902 48.5726C206.658 47.7642 206.228 47.2758 205.613 47.099C205.217 46.9895 204.771 46.9811 204.274 47.0653C203.776 47.1495 203.313 47.2758 202.884 47.4442C202.066 47.7642 201.258 48.2526 200.457 48.9179C199.657 49.5663 199 50.2568 198.486 50.9811C198.284 51.2674 198.124 51.5705 197.972 51.8821C197.593 52.0674 197.138 52.3032 196.624 52.5811C196.683 52.3116 196.734 52.0337 196.751 51.7558C196.784 51.3179 196.734 50.9053 196.616 50.5011C196.489 50.1053 196.254 49.8358 195.9 49.7011C195.622 49.6084 195.293 49.5832 194.914 49.6421C194.535 49.7011 194.181 49.8695 193.861 50.1642C193.777 50.24 193.693 50.3242 193.608 50.4168C193.415 50.6021 193.179 50.8884 192.917 51.2926C192.917 51.3011 192.909 51.3011 192.909 51.3095C192.774 51.5284 192.631 51.7642 192.479 52.0589C192.176 52.6653 192.286 53.4568 192.732 53.8863C192.909 54.0547 193.221 54.2484 193.709 54.2484C193.954 54.2484 194.257 54.1895 194.602 54.0632C194.35 54.5095 194.038 54.9474 193.676 55.3853C193.019 56.1684 192.387 56.6737 191.797 56.9011C191.426 57.0442 191.14 57.0947 190.946 57.0611C190.752 57.0274 190.601 56.9768 190.508 56.9011C190.036 56.5726 189.902 56.0084 190.112 55.2C190.323 54.3916 190.517 53.8021 190.71 53.4232C191.089 52.6821 191.679 51.5537 192.479 50.0379L196.911 46.4421C198.065 45.6 199.008 44.6147 199.758 43.4695C200.061 42.9979 200.213 42.5768 200.213 42.2063C200.213 41.8274 200.053 41.5411 199.741 41.339C199.185 40.9768 198.494 41.0358 197.677 41.5158C196.86 41.9958 196.077 42.6611 195.327 43.4947C194.737 44.1347 193.827 45.3642 192.589 47.1916C192.21 47.7979 191.831 48.4716 191.452 49.2126C191.182 49.7432 190.879 50.3158 190.559 50.9221L189.396 51.8653C189.708 50.4842 189.649 49.28 189.169 48.2611C188.655 47.1579 187.762 46.6105 186.473 46.6105C185.201 46.6105 183.929 47.1411 182.648 48.1937C181.267 49.3221 180.382 50.6526 179.978 52.1853C179.818 52.7832 179.75 53.3474 179.742 53.8779C178.815 54.4674 177.914 55.0147 177.181 55.4526C177.004 55.5537 176.776 55.68 176.557 55.8232C176.305 55.9747 176.086 56.1011 175.917 56.1937C175.765 56.2695 175.622 56.3453 175.487 56.3958C174.957 56.64 174.527 56.7916 174.199 56.8505C173.727 56.9516 173.424 56.8674 173.297 56.6063C173.112 56.2947 173.129 55.7642 173.331 55.0316C173.533 54.2905 173.828 53.5074 174.199 52.6821C174.569 51.8568 174.965 51.0653 175.395 50.3074C175.816 49.5495 176.161 49.0021 176.431 48.6568C176.709 48.2863 177.071 48.0337 177.509 47.9074C177.947 47.7811 178.259 47.8568 178.436 48.1347C178.63 48.4211 178.487 48.6737 178.006 48.8926C177.535 49.1116 177.551 49.499 178.065 50.0632C178.335 50.3747 178.706 50.459 179.161 50.3074C179.615 50.1558 179.834 49.7937 179.809 49.2295C179.75 47.7979 178.992 47.1242 177.535 47.2253C177.038 47.2253 176.507 47.4442 175.926 47.8905C175.622 48.1263 175.336 48.3537 175.075 48.5642C174.814 48.7747 174.536 49.0021 174.249 49.2463C173.482 49.92 172.674 50.6358 171.84 51.3937C170.997 52.1516 170.189 52.8926 169.414 53.6421C169.287 53.7684 169.203 53.8105 169.144 53.7684C169.085 53.7263 169.093 53.6337 169.169 53.4821C169.666 52.4968 170.155 51.5032 170.635 50.5095C171.115 49.5158 171.595 48.5137 172.067 47.5032C172.135 47.3516 172.092 47.2674 171.958 47.2421C171.772 47.2168 171.579 47.2 171.368 47.1832C171.157 47.1663 170.997 47.2253 170.879 47.36C170.483 47.84 169.523 48.8421 167.99 50.3663C166.457 51.899 165.016 53.2295 163.668 54.3663C163.609 54.4168 163.525 54.4674 163.415 54.5263C163.306 54.5853 163.306 54.5432 163.407 54.4C163.559 54.1979 163.702 54.0126 163.837 53.8274C163.971 53.6421 164.106 53.4737 164.224 53.3221C164.578 52.8758 164.915 52.3032 165.235 51.5958C165.555 50.8884 165.757 50.2147 165.825 49.5579C165.901 48.9011 165.799 48.3453 165.521 47.8737C165.243 47.4105 164.687 47.1916 163.853 47.2084C163.559 47.2084 163.188 47.2842 162.75 47.4358C162.312 47.5874 161.95 47.7389 161.646 47.8905C161.351 48.0505 161.057 48.2189 160.762 48.4042C160.467 48.5895 160.18 48.8253 159.902 49.1116C159.658 49.3642 159.633 49.5326 159.827 49.6084C160.029 49.6842 160.214 49.6421 160.399 49.4653C160.551 49.3137 160.779 49.1621 161.082 49.0021C161.385 48.8421 161.697 48.6905 162.025 48.5389C163.196 48.0253 163.904 48.0337 164.157 48.5642C164.308 48.8842 164.258 49.3895 164.005 50.0884C163.761 50.7789 163.432 51.5116 163.019 52.2863C162.615 53.0611 162.177 53.8021 161.714 54.5095C161.25 55.2168 160.88 55.7474 160.602 56.0926C160.29 56.4716 159.911 56.7242 159.464 56.8505C159.018 56.9768 158.715 56.9011 158.546 56.6063C158.378 56.3284 158.546 56.0758 159.035 55.8568C159.523 55.6379 159.54 55.2421 159.077 54.6779C158.833 54.3747 158.47 54.2905 157.999 54.4421C157.527 54.5937 157.282 54.9474 157.266 55.52C157.257 55.6884 157.257 55.8568 157.274 56C157.207 56.0421 157.156 56.0758 157.089 56.1179C156.785 56.3032 156.592 56.4042 156.491 56.4379C156.061 56.6063 155.732 56.5137 155.496 56.1684C155.345 55.9663 155.294 55.7053 155.345 55.3937C155.387 55.0821 155.471 54.8126 155.598 54.5853L159.473 47.0821C159.439 46.939 159.186 46.8716 158.715 46.8632C158.243 46.8632 157.94 46.9558 157.805 47.1495C157.4 47.7642 156.861 48.7074 156.187 49.9537C155.513 51.2 154.915 52.4547 154.401 53.6842C154.25 53.8021 154.005 53.9874 153.652 54.2484C153.298 54.5095 153.028 54.7116 152.826 54.8632C152.464 55.1411 151.941 55.4526 151.267 55.7979C150.593 56.1432 150.021 56.3705 149.549 56.4968C149.094 56.6232 148.824 56.4547 148.749 55.9916C148.69 55.68 148.715 55.3263 148.824 54.9389C148.917 54.5937 149.052 54.2568 149.229 53.9284C149.414 53.6 149.616 53.2716 149.835 52.9432C150.088 52.5474 152.767 48.1684 152.691 47.4442C152.657 47.1074 151.874 46.6695 151.63 46.4926C151.571 46.5684 149.995 49.5074 149.911 49.6337C149.296 50.5684 148.925 51.1495 148.782 51.3853C148.546 51.7642 148.336 52.16 148.134 52.5558C147.931 52.96 147.771 53.4063 147.645 53.8947C147.552 54.2484 147.544 54.6526 147.561 55.0905C147.257 55.2926 146.533 56.0084 146.457 56.0589C146.28 56.2021 145.96 56.4379 145.471 56.7579C144.991 57.0779 144.553 57.28 144.166 57.3642C143.862 57.4316 143.677 57.4063 143.61 57.28C143.542 57.1537 143.492 56.9684 143.467 56.7158C143.441 56.5137 143.466 56.2779 143.559 56.0337C143.652 55.7811 143.728 55.5368 143.803 55.3011C143.947 54.8463 144.115 54.4253 144.326 54.0295C144.536 53.6337 144.739 53.2211 144.949 52.7832C145.893 50.7368 146.954 48.8 148.142 46.9642C148.631 46.2147 149.128 45.4653 149.642 44.7242C150.155 43.9832 150.644 43.2842 151.099 42.6274C151.208 42.5011 151.301 42.3747 151.369 42.2484C151.436 42.1221 151.512 42.0126 151.604 41.9032C151.689 41.7263 151.537 41.6168 151.158 41.5747C150.779 41.5242 150.518 41.5832 150.383 41.7263C149.684 42.56 149.06 43.3684 148.496 44.1684C147.931 44.9684 147.392 45.7768 146.862 46.619C146.634 46.9558 146.398 47.3263 146.162 47.7053C145.842 48.2105 145.564 48.6232 145.328 48.9432C145.084 49.2632 144.73 49.6084 144.25 49.9537C143.921 50.1979 143.559 50.4168 143.155 50.6274C142.759 50.8379 142.279 51.0484 141.714 51.2505C141.571 51.3011 141.394 51.3516 141.192 51.4021C140.99 51.4526 140.796 51.4611 140.611 51.4274C139.895 51.2926 139.608 50.7958 139.76 49.9368C139.911 49.0779 140.223 48.2358 140.695 47.4021C141.133 46.6358 141.596 45.9874 142.085 45.4568C142.574 44.9263 142.885 44.5895 143.028 44.4463C143.492 43.9663 143.972 43.5032 144.469 43.0484C144.966 42.5937 145.446 42.1305 145.91 41.6421C146.028 41.5074 146.019 41.3979 145.876 41.3137C145.792 41.2632 145.707 41.2632 145.623 41.3221C145.539 41.3811 145.471 41.4316 145.429 41.4821C145.118 41.8274 144.73 42.0379 144.284 42.1053C143.997 42.1474 143.702 42.139 143.399 42.0884C143.104 42.0379 142.826 41.9874 142.582 41.9453C142.397 41.92 142.211 41.8863 142.034 41.8611C141.849 41.8274 141.672 41.8021 141.504 41.7684C141.15 41.7095 140.796 41.6421 140.459 41.5663C140.004 41.4653 139.558 41.3895 139.103 41.339C138.622 41.2884 138.142 41.2716 137.671 41.2968C136.719 41.339 135.842 41.5074 135.051 41.819C133.863 42.2905 132.902 42.9726 132.186 43.8653C131.605 44.5979 131.133 45.4821 130.763 46.5179C130.417 47.4695 130.257 48.539 130.282 49.7179C130.308 50.8968 130.619 51.8821 131.226 52.6737C131.58 53.1621 132.06 53.5242 132.666 53.7768C133.273 54.0211 133.981 54.1053 134.789 54.0211C134.949 54.0126 135.008 53.9032 134.983 53.7095C134.958 53.5326 134.865 53.4653 134.714 53.4905C133.998 53.5916 133.408 53.5495 132.936 53.3811C132.464 53.2042 132.068 52.9347 131.748 52.5642C131.066 51.7895 130.72 50.7453 130.712 49.4484C130.704 48.1432 130.906 47.0147 131.319 46.0463C131.622 45.3558 131.967 44.7579 132.363 44.2611C132.759 43.7642 133.281 43.3011 133.939 42.8884C135.042 42.1895 136.171 41.8695 137.325 41.9453C137.831 41.979 138.344 42.0547 138.867 42.1642C139.389 42.2737 139.945 42.3916 140.526 42.5095C140.863 42.5853 141.209 42.6442 141.546 42.7032C141.883 42.7621 142.228 42.7958 142.557 42.8126C143.062 42.8379 143.525 42.8126 143.93 42.7368C143.955 42.7368 143.98 42.7284 144.014 42.72C143.424 43.1242 142.767 43.5958 142.034 44.1432C141.301 44.6905 140.636 45.3305 140.029 46.0463C139.103 47.1747 138.656 48.3537 138.698 49.5747C138.707 49.9453 138.757 50.2905 138.858 50.619C138.959 50.9474 139.195 51.2421 139.558 51.5116C140.147 51.9579 140.956 51.9916 141.984 51.6126C142.43 51.4526 142.902 51.2253 143.399 50.9221C143.896 50.619 144.359 50.3326 144.789 50.0632C144.553 50.5095 144.351 50.9053 144.199 51.2421C144.031 51.6126 143.837 51.9916 143.627 52.379C143.408 52.7663 143.239 53.1453 143.104 53.5158C142.793 54.3747 142.658 55.3432 142.7 56.4126C142.717 56.8505 142.826 57.2042 143.028 57.4905C143.231 57.7684 143.61 57.8779 144.166 57.8105C144.351 57.7853 144.747 57.6168 145.354 57.3053C145.808 57.0779 146.971 56.3621 147.653 55.9158C147.78 56.4042 148.024 56.7832 148.403 57.0526C148.732 57.28 149.145 57.339 149.642 57.2126C149.962 57.1116 150.324 56.9937 150.72 56.8589C151.116 56.7242 151.486 56.5474 151.832 56.32C152.152 56.1095 152.556 55.8316 153.028 55.4863C153.508 55.1411 153.871 54.8716 154.132 54.6611C154.039 55.2337 154.064 55.7221 154.191 56.1432C154.283 56.4632 154.46 56.7579 154.738 57.0189C155.008 57.28 155.446 57.3389 156.036 57.1958C156.305 57.1284 156.642 57.0021 157.03 56.8168C157.156 56.7579 157.282 56.6737 157.409 56.5979C157.687 57.28 158.335 57.6 159.372 57.5326C159.742 57.5326 160.155 57.3979 160.61 57.1368C160.838 57.0021 161.082 56.8674 161.335 56.7242C161.587 56.5811 161.823 56.4295 162.042 56.2695C162.506 55.9495 163.062 55.5116 163.727 54.9642C164.384 54.4168 165.024 53.8695 165.648 53.3137C166.263 52.7579 166.802 52.2611 167.265 51.8232C167.72 51.3853 167.99 51.1074 168.066 50.9979C168.158 50.8632 168.251 50.8042 168.352 50.8042C168.453 50.8042 168.478 50.8716 168.428 50.9979C168.403 51.0484 168.386 51.0905 168.369 51.1326C168.352 51.1747 168.335 51.2168 168.318 51.2589C167.931 52.1516 167.678 52.6905 167.569 52.8926C167.459 53.0863 167.181 53.6 166.735 54.4253C166.499 54.8632 166.238 55.3011 165.96 55.7474C165.682 56.1937 165.437 56.64 165.227 57.0863C165.134 57.3305 165.168 57.4737 165.311 57.5074C165.437 57.5326 165.623 57.5579 165.884 57.5916C166.136 57.6253 166.372 57.6168 166.575 57.5663C166.65 57.5495 166.768 57.4484 166.937 57.2716C167.206 57.0358 167.51 56.6821 167.83 56.2274C168.158 55.7726 168.403 55.4526 168.58 55.2842C169.296 54.5684 170.012 53.8695 170.728 53.179C171.444 52.4968 172.143 51.84 172.834 51.2253C173.019 51.0484 173.146 50.9979 173.196 51.0484C173.247 51.1074 173.196 51.2337 173.061 51.4358C172.741 51.8905 172.446 52.4716 172.185 53.1874C171.924 53.9032 171.772 54.5937 171.755 55.259C171.73 55.9242 171.873 56.4968 172.185 56.96C172.497 57.4232 173.07 57.6421 173.904 57.6253C174.19 57.6253 174.552 57.5411 174.974 57.3642C175.327 57.2211 175.622 57.0863 175.892 56.9516V56.96C175.9 56.9516 175.942 56.9263 175.976 56.9095C176.001 56.9011 176.027 56.8842 176.052 56.8758C176.128 56.8337 176.212 56.7747 176.288 56.7326C176.945 56.3537 178.31 55.5453 179.784 54.6189C179.851 55.1411 179.986 55.6379 180.23 56.0926C180.812 57.1789 181.747 57.7179 183.036 57.7179C184.325 57.7179 185.588 57.1789 186.844 56.0926C187.939 55.1495 188.688 54.0211 189.143 52.7495L189.977 52.0758C189.691 52.6821 189.438 53.3811 189.211 54.1979C188.933 55.1916 189.017 56.0505 189.472 56.7747C189.607 56.9937 189.784 57.179 190.003 57.3305C190.222 57.4821 190.55 57.5579 190.988 57.5579C191.553 57.5579 192.227 57.3811 193.01 57.0358C193.945 56.6232 194.796 55.9411 195.546 54.9979C195.782 54.7032 196.035 54.2484 196.304 53.6421C196.38 53.4653 196.43 53.2884 196.489 53.1116C196.961 52.8589 197.391 52.6316 197.761 52.4463C197.526 53.0695 197.374 53.7432 197.315 54.4589C197.264 54.8968 197.281 55.3179 197.366 55.7221C197.45 56.1263 197.652 56.4968 197.972 56.8168C198.478 57.3221 199.076 57.5579 199.783 57.5326C200.39 57.5158 201.114 57.28 201.948 56.8253C202.294 56.6316 202.664 56.4211 203.052 56.1853C203.44 55.9495 203.768 55.68 204.046 55.3853C204.172 55.2337 204.248 55.2253 204.274 55.36C204.299 55.4947 204.332 55.5368 204.366 55.4863C204.417 57.0695 204.846 57.8274 205.664 57.7684C206.481 57.7095 207.281 57.3137 208.073 56.5979C208.208 56.4716 208.216 56.3789 208.098 56.3032C207.938 56.2189 207.803 56.1937 207.643 56.219ZM193.28 48.4632C193.313 48.4463 193.347 48.4211 193.372 48.3874C193.482 48.2358 197.121 42.3326 197.837 41.8526C198.553 41.3726 199.109 41.2632 199.505 41.5242C199.724 41.6674 199.817 41.8779 199.792 42.1558C199.766 42.4337 199.615 42.7789 199.337 43.2C199.168 43.4611 198.907 43.7811 198.553 44.1684C198.2 44.5558 197.778 44.96 197.315 45.3811C197.13 45.5495 196.953 45.7011 196.776 45.8526L193.069 48.859C193.137 48.7411 193.212 48.6063 193.28 48.4632ZM181.663 52.5137C182.101 51.2253 182.842 50.0463 183.878 48.9684C184.518 48.3032 185.125 47.84 185.698 47.5874C185.706 47.5958 185.715 47.5958 185.715 47.6042C185.959 47.9579 185.588 49.2042 184.434 50.4421C183.895 51.0232 182.834 51.8147 181.62 52.64C181.637 52.5895 181.646 52.5558 181.663 52.5137ZM187.593 52.1179C187.155 53.4232 186.473 54.5347 185.555 55.4611C184.636 56.3874 183.752 56.8505 182.909 56.8505C182.058 56.8505 181.528 56.4547 181.326 55.6547C181.182 55.0905 181.208 54.4 181.376 53.5916C182.859 52.6063 184.24 51.6042 184.914 50.8884C186.119 49.6 186.675 48.1853 186.33 47.4021C186.464 47.3768 186.591 47.36 186.726 47.36C187.568 47.36 188.031 47.8316 188.116 48.7747C188.191 49.7179 188.023 50.8295 187.593 52.1179ZM192.985 53.6084C192.648 53.2884 192.572 52.6989 192.808 52.2358C192.985 51.8821 193.153 51.6042 193.305 51.3768C193.49 51.1242 193.676 50.8968 193.878 50.7032C194.468 50.1305 194.973 49.9368 195.403 50.1221C195.613 50.2147 195.698 50.4758 195.672 50.9053C195.647 51.3347 195.453 52.0253 195.099 52.9853C195.032 53.1621 194.956 53.3305 194.88 53.4989C194.046 53.9284 193.381 53.9789 192.985 53.6084ZM204.054 54.2821C203.785 54.8632 203.229 55.3937 202.395 55.8737C202.033 56.0842 201.628 56.2863 201.19 56.4632C200.752 56.6484 200.323 56.7663 199.91 56.8337C199.278 56.9347 198.89 56.6568 198.747 56.0168C198.612 55.4274 198.654 54.8126 198.857 54.1474C198.983 53.7095 199.152 53.2716 199.379 52.8337C199.598 52.3958 199.834 51.9832 200.07 51.5874C200.44 50.9474 200.845 50.3747 201.283 49.8695C201.603 49.4821 201.923 49.1368 202.243 48.8421C202.563 48.5474 202.951 48.2695 203.423 48.0253C203.979 47.7389 204.45 47.5874 204.855 47.5705C205.495 47.5537 205.916 47.84 206.11 48.4379C206.304 49.0358 206.262 49.6168 205.992 50.1895L204.054 54.2821Z" fill="#00297A"/>
<path d="M41.9696 50.4H0.269043V51.2H41.9696V50.4Z" fill="#00297A"/>
<path d="M253 50.4H211.299V51.2H253V50.4Z" fill="#00297A"/>
</svg>
